<svg width="38" height="38" viewBox="0 0 38 38" fill="none" xmlns="http://www.w3.org/2000/svg">
<g filter="url(#filter0_d)">
<path d="M19 0C10.7157 0 4 6.7157 4 15C4 23.2843 10.7157 30 19 30C27.2843 30 34 23.2843 34 15C34 6.7157 27.2843 0 19 0ZM24.7226 7.63887L22.6479 7.63979C21.021 7.63979 20.7064 8.41289 20.7064 9.54721V12.0485H24.586L24.5841 15.9661H20.7067V26.0197H16.6602V15.9661H13.2774V12.0485H16.6602V9.15928C16.6602 5.80634 18.7087 3.98026 21.6995 3.98026L24.7229 3.98486V7.63887H24.7226Z" fill="white"/>
</g>
<defs>
<filter id="filter0_d" x="0" y="0" width="38" height="38" filterUnits="userSpaceOnUse" color-interpolation-filters="sRGB">
<feFlood flood-opacity="0" result="BackgroundImageFix"/>
<feColorMatrix in="SourceAlpha" type="matrix" values="0 0 0 0 0 0 0 0 0 0 0 0 0 0 0 0 0 0 127 0"/>
<feOffset dy="4"/>
<feGaussianBlur stdDeviation="2"/>
<feColorMatrix type="matrix" values="0 0 0 0 0 0 0 0 0 0 0 0 0 0 0 0 0 0 0.25 0"/>
<feBlend mode="normal" in2="BackgroundImageFix" result="effect1_dropShadow"/>
<feBlend mode="normal" in="SourceGraphic" in2="effect1_dropShadow" result="shape"/>
</filter>
</defs>
</svg>
