<svg width="30" height="30" viewBox="0 0 30 30" fill="none" xmlns="http://www.w3.org/2000/svg">
<circle cx="15" cy="15" r="15" fill="white"/>
<path d="M22.3125 8H7.68751C6.75696 8 6 8.72892 6 9.62501V19.375C6 20.2711 6.75696 21 7.68751 21H22.3125C23.243 21 24 20.2711 24 19.375V9.62501C24 8.72892 23.243 8 22.3125 8ZM22.3125 9.08333C22.3889 9.08333 22.4616 9.0986 22.5281 9.12526L15 15.4082L7.47188 9.12526C7.53834 9.09863 7.61105 9.08333 7.68747 9.08333H22.3125ZM22.3125 19.9166H7.68751C7.37715 19.9166 7.125 19.6739 7.125 19.375V10.2698L14.6314 16.5344C14.7374 16.6227 14.8687 16.6667 15 16.6667C15.1313 16.6667 15.2626 16.6228 15.3686 16.5344L22.875 10.2698V19.375C22.875 19.6739 22.6228 19.9166 22.3125 19.9166Z" fill="black"/>
</svg>
