<svg width="38" height="38" viewBox="0 0 38 38" fill="none" xmlns="http://www.w3.org/2000/svg">
<g filter="url(#filter0_d)">
<path d="M21.8711 15C21.8711 16.5857 20.5857 17.8711 19 17.8711C17.4143 17.8711 16.1289 16.5857 16.1289 15C16.1289 13.4143 17.4143 12.1289 19 12.1289C20.5857 12.1289 21.8711 13.4143 21.8711 15Z" fill="white"/>
<path d="M25.7134 9.92039C25.5754 9.5464 25.3552 9.20789 25.0691 8.93002C24.7913 8.64392 24.453 8.42374 24.0788 8.28572C23.7753 8.16785 23.3193 8.02754 22.4796 7.98932C21.5711 7.94789 21.2988 7.93896 18.999 7.93896C16.6989 7.93896 16.4266 7.94766 15.5184 7.98909C14.6786 8.02754 14.2224 8.16785 13.9192 8.28572C13.5449 8.42374 13.2064 8.64392 12.9288 8.93002C12.6427 9.20789 12.4225 9.54617 12.2843 9.92039C12.1664 10.2239 12.0261 10.6801 11.9879 11.5198C11.9464 12.428 11.9375 12.7004 11.9375 15.0004C11.9375 17.3002 11.9464 17.5726 11.9879 18.481C12.0261 19.3208 12.1664 19.7767 12.2843 20.0802C12.4225 20.4545 12.6425 20.7927 12.9286 21.0706C13.2064 21.3567 13.5447 21.5769 13.9189 21.7149C14.2224 21.833 14.6786 21.9733 15.5184 22.0115C16.4266 22.053 16.6987 22.0617 18.9987 22.0617C21.299 22.0617 21.5714 22.053 22.4793 22.0115C23.3191 21.9733 23.7753 21.833 24.0788 21.7149C24.83 21.4251 25.4237 20.8314 25.7134 20.0802C25.8313 19.7767 25.9716 19.3208 26.0101 18.481C26.0515 17.5726 26.0602 17.3002 26.0602 15.0004C26.0602 12.7004 26.0515 12.428 26.0101 11.5198C25.9718 10.6801 25.8315 10.2239 25.7134 9.92039ZM18.999 19.4231C16.5561 19.4231 14.5758 17.4431 14.5758 15.0002C14.5758 12.5573 16.5561 10.5773 18.999 10.5773C21.4416 10.5773 23.4219 12.5573 23.4219 15.0002C23.4219 17.4431 21.4416 19.4231 18.999 19.4231ZM23.5967 11.4361C23.0259 11.4361 22.5631 10.9733 22.5631 10.4024C22.5631 9.83159 23.0259 9.36879 23.5967 9.36879C24.1676 9.36879 24.6304 9.83159 24.6304 10.4024C24.6301 10.9733 24.1676 11.4361 23.5967 11.4361Z" fill="white"/>
<path d="M19 0C10.717 0 4 6.717 4 15C4 23.283 10.717 30 19 30C27.283 30 34 23.283 34 15C34 6.717 27.283 0 19 0ZM27.5613 18.5511C27.5197 19.468 27.3739 20.094 27.161 20.6419C26.7135 21.7989 25.7989 22.7135 24.6419 23.161C24.0942 23.3739 23.468 23.5194 22.5513 23.5613C21.6328 23.6032 21.3394 23.6133 19.0002 23.6133C16.6608 23.6133 16.3676 23.6032 15.4489 23.5613C14.5322 23.5194 13.906 23.3739 13.3583 23.161C12.7833 22.9447 12.2629 22.6057 11.8326 22.1674C11.3945 21.7374 11.0555 21.2167 10.8392 20.6419C10.6264 20.0942 10.4806 19.468 10.4389 18.5513C10.3966 17.6326 10.3867 17.3392 10.3867 15C10.3867 12.6608 10.3966 12.3674 10.4387 11.4489C10.4803 10.532 10.6259 9.90601 10.8388 9.35806C11.0551 8.78334 11.3943 8.26263 11.8326 7.83257C12.2626 7.39426 12.7833 7.05528 13.3581 6.83899C13.906 6.62613 14.532 6.48056 15.4489 6.43867C16.3674 6.39679 16.6608 6.38672 19 6.38672C21.3392 6.38672 21.6326 6.39679 22.5511 6.4389C23.468 6.48056 24.094 6.62613 24.6419 6.83876C25.2167 7.05505 25.7374 7.39426 26.1677 7.83257C26.6057 8.26286 26.9449 8.78334 27.161 9.35806C27.3741 9.90601 27.5197 10.532 27.5616 11.4489C27.6034 12.3674 27.6133 12.6608 27.6133 15C27.6133 17.3392 27.6034 17.6326 27.5613 18.5511Z" fill="white"/>
</g>
<defs>
<filter id="filter0_d" x="0" y="0" width="38" height="38" filterUnits="userSpaceOnUse" color-interpolation-filters="sRGB">
<feFlood flood-opacity="0" result="BackgroundImageFix"/>
<feColorMatrix in="SourceAlpha" type="matrix" values="0 0 0 0 0 0 0 0 0 0 0 0 0 0 0 0 0 0 127 0"/>
<feOffset dy="4"/>
<feGaussianBlur stdDeviation="2"/>
<feColorMatrix type="matrix" values="0 0 0 0 0 0 0 0 0 0 0 0 0 0 0 0 0 0 0.25 0"/>
<feBlend mode="normal" in2="BackgroundImageFix" result="effect1_dropShadow"/>
<feBlend mode="normal" in="SourceGraphic" in2="effect1_dropShadow" result="shape"/>
</filter>
</defs>
</svg>
