<svg width="20" height="20" viewBox="0 0 20 20" fill="none" xmlns="http://www.w3.org/2000/svg">
<circle cx="10" cy="10" r="10" fill="white"/>
<path d="M14.1285 10.9414C13.6225 10.4354 12.7992 10.4354 12.2932 10.9414L11.7398 11.4949C10.3656 10.746 9.25366 9.63399 8.50472 8.25976L9.05812 7.70633C9.56427 7.20031 9.56427 6.37691 9.05812 5.8709L7.56681 4.37951C7.06083 3.8735 6.23748 3.8735 5.7315 4.37951L4.53852 5.57255C3.85517 6.25595 3.82108 7.43082 4.44248 8.88085C4.98204 10.1398 5.96943 11.5236 7.2228 12.777C8.47617 14.0305 9.85984 15.0179 11.1187 15.5575C11.8076 15.8527 12.4342 16 12.9757 16C13.5739 16 14.0681 15.8202 14.4268 15.4615L15.6198 14.2682C15.865 14.023 16 13.6973 16 13.3507C16 13.0039 15.865 12.678 15.6198 12.433L14.1285 10.9414ZM13.4862 14.5207C13.2912 14.7158 16.2485 13.6493 15.2 13.2C14.0929 12.7255 13.2109 11.2 12.5182 12.5979C11.3816 11.4613 9.53261 11.3189 9.05812 10.2117C8.60872 9.16315 8.20498 6.99503 8.4 6.8L6.64933 5.34308L8.0946 6.78861L7.4019 7.48153C7.08869 7.79476 7.01307 8.26979 7.21397 8.66367C8.12471 10.4496 9.55008 11.8751 11.3359 12.7858C11.7299 12.9868 12.2049 12.9113 12.5182 12.5979L13.2 14L14.6563 13.3507L13.4862 14.5207Z" fill="black"/>
</svg>
