<svg width="38" height="38" viewBox="0 0 38 38" fill="none" xmlns="http://www.w3.org/2000/svg">
<g filter="url(#filter0_d)">
<path d="M19 0C10.717 0 4 6.717 4 15C4 23.283 10.717 30 19 30C27.283 30 34 23.283 34 15C34 6.717 27.283 0 19 0ZM25.8488 11.6954C25.8555 11.843 25.8587 11.9913 25.8587 12.1404C25.8587 16.6898 22.3957 21.936 16.0628 21.9363C14.1184 21.9363 12.3091 21.3663 10.7854 20.3897C11.0548 20.4215 11.329 20.4373 11.6067 20.4373C13.2198 20.4373 14.7043 19.8871 15.8829 18.9635C14.3757 18.9356 13.1049 17.9402 12.6664 16.5722C12.8763 16.6125 13.0921 16.6344 13.3134 16.6344C13.6277 16.6344 13.9321 16.5921 14.2214 16.5131C12.646 16.1977 11.4593 14.8055 11.4593 13.1383C11.4593 13.1227 11.4593 13.1087 11.4597 13.0943C11.9237 13.3523 12.4542 13.5075 13.0191 13.5249C12.0946 12.908 11.487 11.8536 11.487 10.659C11.487 10.0282 11.6575 9.43726 11.9532 8.92845C13.651 11.0117 16.1884 12.3818 19.0499 12.5258C18.9908 12.2736 18.9604 12.0108 18.9604 11.7407C18.9604 9.84009 20.5024 8.29811 22.4037 8.29811C23.3941 8.29811 24.2885 8.71674 24.9168 9.38599C25.7012 9.23126 26.4377 8.9447 27.1031 8.55034C26.8456 9.35394 26.3 10.0282 25.5891 10.4546C26.2855 10.3713 26.9493 10.1866 27.5661 9.91241C27.1054 10.603 26.5211 11.2095 25.8488 11.6954Z" fill="white"/>
</g>
<defs>
<filter id="filter0_d" x="0" y="0" width="38" height="38" filterUnits="userSpaceOnUse" color-interpolation-filters="sRGB">
<feFlood flood-opacity="0" result="BackgroundImageFix"/>
<feColorMatrix in="SourceAlpha" type="matrix" values="0 0 0 0 0 0 0 0 0 0 0 0 0 0 0 0 0 0 127 0"/>
<feOffset dy="4"/>
<feGaussianBlur stdDeviation="2"/>
<feColorMatrix type="matrix" values="0 0 0 0 0 0 0 0 0 0 0 0 0 0 0 0 0 0 0.25 0"/>
<feBlend mode="normal" in2="BackgroundImageFix" result="effect1_dropShadow"/>
<feBlend mode="normal" in="SourceGraphic" in2="effect1_dropShadow" result="shape"/>
</filter>
</defs>
</svg>
